<svg width="137" height="50" viewBox="0 0 137 50" fill="none" xmlns="http://www.w3.org/2000/svg">
<g clip-path="url(#clip0_74_3)">
<path d="M58.9476 2.54883H71.0263C72.5986 2.56455 73.9415 3.08876 74.3509 3.22619C77.2683 4.21393 79.5013 6.04758 81.0503 8.72714C81.8846 10.1702 82.391 11.7693 82.5687 13.5243C82.6549 14.3699 82.635 15.7491 82.4749 16.7416C82.1915 18.5001 81.5481 20.1237 80.5443 21.6117C80.5067 21.6655 80.5181 21.74 80.5692 21.7819C82.4835 23.2938 83.5381 24.3133 84.6363 26.5164C85.2269 27.7013 85.6073 28.9642 85.6465 30.9724C85.6821 32.8208 85.7509 34.5642 85.1509 36.9205C85.0139 37.4592 84.7926 37.9768 84.5441 38.49C82.8165 42.051 80.0736 44.4677 76.3156 45.7407C75.779 45.923 75.1565 46.0671 74.4481 46.1715C73.9235 46.2495 73.2877 46.2881 72.5409 46.2866C66.8235 46.2819 62.2756 46.2793 58.897 46.2793C58.8554 46.2793 58.8213 46.2451 58.8213 46.2029V2.67619C58.8213 2.60606 58.8778 2.54883 58.9476 2.54883ZM67.1363 10.9246L67.1111 18.2903C67.1111 18.3315 67.1442 18.3652 67.1849 18.3652L70.7166 18.3781C72.8392 18.3856 74.5656 16.7136 74.5725 14.6444V14.6227C74.5791 12.5532 72.8641 10.8702 70.7419 10.8627L67.2102 10.8498C67.1694 10.8498 67.1363 10.8834 67.1363 10.9246ZM67.1129 27.4466L67.1309 37.6441C67.1309 37.6903 67.1679 37.7281 67.2136 37.7281L72.2634 37.7193C75.1221 37.7136 77.4353 35.4152 77.4302 32.5856V32.4686C77.4255 29.6385 75.1044 27.3482 72.2454 27.3536L67.1956 27.3627C67.1502 27.3627 67.1129 27.4001 67.1129 27.4466Z" fill="#FF0033"/>
<path d="M133.2 17.8329V25.937L127.41 25.9474C127.368 25.9474 127.334 25.981 127.334 26.0228C127.337 31.5402 127.336 34.3719 127.332 34.5178C127.307 35.5298 127.466 36.1807 128.193 36.7729C128.923 37.3685 129.814 37.6072 130.686 37.7848C131.419 37.9355 132.364 37.9408 133.2 38.038V46.2741C131.891 46.2839 130.583 46.2845 129.274 46.2763C128.671 46.2713 128.142 46.2191 127.687 46.12C127.109 45.9943 126.59 45.8657 126.133 45.7342C122.36 44.6524 119.785 41.798 118.785 37.8924C118.677 37.4694 118.669 37.559 118.638 37.1122V10.0575C118.637 10.0175 118.667 9.9842 118.706 9.98011L127.219 9.12096C127.281 9.11593 127.335 9.16467 127.334 9.22694V17.7612C127.334 17.7999 127.366 17.8311 127.406 17.8311L133.2 17.8329Z" fill="#FF0033"/>
<path d="M99.8284 38.4917C102.226 39.2474 104.491 38.948 106.622 37.5927C106.81 37.4732 107.181 37.1725 107.735 36.6905C107.775 36.6565 107.824 36.6351 107.875 36.6295L116.601 35.7483C116.708 35.7383 116.79 35.8402 116.757 35.9424C116.23 37.5641 115.325 39.2776 114.24 40.6336C111.884 43.5725 108.787 45.2681 105.03 46.109C103.757 46.3942 101.367 46.3442 100.506 46.2115C97.9701 45.8181 95.8012 44.9955 93.999 43.7446C90.4907 41.3093 88.358 37.9351 87.6001 33.6207C87.5066 33.0946 87.4688 32.5269 87.4868 31.9181C87.5101 31.0858 87.4508 30.4219 87.5496 29.6486C88.3315 23.5345 92.3834 18.798 98.3012 17.0078C98.3868 16.9814 100.477 16.0537 104.965 16.6505C106.094 16.8008 106.703 17.0216 106.834 17.0634C111.233 18.4641 114.377 21.271 116.266 25.4845C116.31 25.5832 116.28 25.6999 116.194 25.7666L99.8123 38.4021C99.7811 38.4273 99.789 38.4763 99.8266 38.4908C99.8272 38.4911 99.8284 38.4917 99.8284 38.4917ZM97.6099 25.1977C95.3226 26.9612 94.2601 29.8065 94.7481 32.6502C94.7576 32.7015 94.8182 32.7247 94.8598 32.6933C96.4132 31.4864 98.1986 30.1062 100.216 28.5527C102.232 26.9986 104.021 25.6254 105.584 24.4317C105.627 24.3993 105.619 24.3323 105.57 24.3115C102.931 23.1273 99.8988 23.4358 97.6099 25.1977Z" fill="#FF0033"/>
<path d="M47.05 20.8033C46.9878 20.5763 46.9016 20.9464 45.6712 21.7436C41.4264 24.4932 36.7122 21.7055 35.2573 20.4256C33.2603 18.6687 32.2313 16.6291 31.9273 14.0146C31.3187 8.77752 34.8052 4.01273 39.9487 2.91306C42.8409 2.29387 45.9565 2.9684 48.3284 4.8055C50.2351 6.2838 51.476 8.20833 52.0511 10.5791C52.2118 11.2369 52.291 12.0369 52.2885 12.9794C52.2828 15.7064 52.2781 18.9291 52.2743 22.6476C52.2743 22.7121 52.2219 22.7643 52.1572 22.7643L47.0389 22.7605C46.9824 22.7608 46.9376 22.7127 46.9417 22.6564L47.05 20.8033ZM47.4282 12.8681C47.4282 9.96179 45.0632 7.60613 42.1458 7.60613C39.2287 7.60613 36.8637 9.96179 36.8637 12.8681C36.8637 15.7741 39.2287 18.13 42.1458 18.13C45.0632 18.13 47.4282 15.7741 47.4282 12.8681Z" fill="white"/>
<path d="M47.048 44.0441C46.9858 43.817 46.8997 44.1871 45.6692 44.9843C41.4244 47.734 36.7102 44.9463 35.2553 43.6664C33.2584 41.9095 32.2293 39.8698 31.9253 37.2554C31.3167 32.0183 34.8033 27.2535 39.9468 26.1538C42.8389 25.5346 45.9546 26.2091 48.3265 28.0462C50.2331 29.5245 51.474 31.4491 52.0492 33.8198C52.2098 34.4777 52.2891 35.2777 52.2865 36.2202C52.2809 38.9472 52.2761 42.1698 52.2723 45.8884C52.2723 45.9529 52.2199 46.0051 52.1552 46.0051L47.037 46.0013C46.9805 46.0016 46.9356 45.9535 46.9398 45.8972L47.048 44.0441ZM47.4262 36.1088C47.4262 33.2026 45.0612 30.8469 42.1438 30.8469C39.2267 30.8469 36.8617 33.2026 36.8617 36.1088C36.8617 39.0148 39.2267 41.3708 42.1438 41.3708C45.0612 41.3708 47.4262 39.0148 47.4262 36.1088Z" fill="white"/>
<path d="M20.3102 2.4803C21.8336 2.47559 23.8608 2.4759 26.3922 2.48188C27.258 2.48565 27.813 2.81207 27.8146 3.69853C27.8158 22.2407 27.8146 31.7212 27.8111 32.1397C27.8 33.2004 27.7956 35.6457 26.6962 38.7705C25.3293 42.657 21.9059 45.0822 18.0159 45.9756C16.2277 46.3863 14.3128 46.4366 12.332 46.2158C9.6163 45.9133 6.93375 45.2029 4.28371 44.0847C3.95479 43.9457 3.73603 43.6498 3.62807 43.1963C3.28589 41.7737 2.8427 36.9253 5.42896 37.0177C7.56288 37.0941 8.22104 38.6127 10.3726 39.2728C11.8036 39.7121 13.0615 39.9297 14.5941 39.7322C18.8354 39.185 20.1786 34.8221 20.177 31.1979C20.1672 20.5734 20.1694 11.0435 20.1823 2.60766C20.1823 2.53754 20.2398 2.4803 20.3102 2.4803Z" fill="white"/>
<path d="M9.1421 2.4082H16.5395C17.0546 2.4082 17.0572 2.42204 17.0572 2.93524V8.34878C17.0572 8.8623 17.031 8.88557 16.5158 8.88557H9.1421C8.62693 8.88557 8.20898 8.46922 8.20898 7.95601V3.33746C8.20898 2.82424 8.62693 2.4082 9.1421 2.4082Z" fill="#FF0033"/>
</g>
<defs>
<clipPath id="clip0_74_3">
<rect width="137" height="50" fill="white"/>
</clipPath>
</defs>
</svg>
